PathFileType	4	(X/Y/Z)	C:/Users/beibeiliu/ov580/test_trc/User2\sequence.35_training_dense_right.trc
DataRate	CameraRate	NumFrames	NumMarkers	Units	OrigDataRate	OrigDataStartFrame	OrigNumFrames
120	120	24	19	mm	120	181	289
Frame#	Time	ThumbCMC			ThumbMCP			ThumbIP			ThumbTip			IndexMCP			IndexPIP			IndexTip			MiddleMCP			MiddlePIP			MiddleTip			RingMCP			RingPIP			RingTip			PinkyMCP			PinkyPIP			PinkyTip			BackHand1			BackHand2			BackHand3	
		X0	Y0	Z0	X1	Y1	Z1	X2	Y2	Z2	X3	Y3	Z3	X4	Y4	Z4	X5	Y5	Z5	X6	Y6	Z6	X7	Y7	Z7	X8	Y8	Z8	X9	Y9	Z9	X10	Y10	Z10	X11	Y11	Z11	X12	Y12	Z12	X13	Y13	Z13	X14	Y14	Z14	X15	Y15	Z15	X16	Y16	Z16	X17	Y17	Z17	X18	Y18	Z18	
180	1.5	51.9418	-41.6974	105.041	25.2304	-40.6604	87.4043	8.25044	-43.2279	55.2166	-1.16069	-51.0542	29.9332	52.1624	-49.1401	20.9124	43.2716	-82.4615	16.004	44.121	-87.4536	51.5596	70.5085	-60.0512	11.7507	58.5044	-93.0259	12.9589	62.0924	-96.2241	53.5619	86.5291	-73.0388	15.6085	75.0732	-105.029	22.8849	73.1059	-99.9525	56.1022	106.803	-81.6646	26.885	86.9225	-109.479	31.3875	84.3244	-104.628	64.1561	113.415	-40.5055	62.9381	120.767	-36.0158	101.991	83.145	-24.8144	89.6311	
181	1.50833	49.7526	-41.5616	104.427	23.81	-40.9222	85.5974	6.60244	-46.1492	58.513	4.97645	-56.4859	31.1275	48.1272	-49.5537	20.8169	41.327	-82.5157	16.9187	45.1986	-88.1895	49.9278	72.2158	-58.6411	13.2502	59.9168	-94.0623	12.7598	58.3749	-96.2907	54.174	91.2833	-73.9874	15.452	77.2989	-104.537	21.4429	70.6322	-98.7176	55.9408	107	-84.2347	24.4703	86.8508	-108.484	32.4428	81.4064	-106.235	61.7003	108.424	-38.1036	67.9848	116.707	-34.4084	99.4982	81.9706	-27.4114	90.0672	
182	1.51667	47.5003	-41.3313	107.547	23.7126	-43.432	89.9798	5.04391	-48.3446	54.0141	9.64035	-61.4331	28.7873	45.9185	-51.8964	18.5759	42.2127	-83.4806	15.972	47.4518	-89.977	49.3013	69.7228	-58.0425	14.6608	62.1515	-93.6923	11.4089	57.656	-96.8412	55.1092	87.6677	-71.563	16.7678	76.4344	-105.108	20.9504	75.5849	-100.694	57.7141	106.078	-83.4466	23.562	86.7403	-107.901	32.2027	80.8363	-106.046	61.2297	108.076	-37.2258	64.3016	118.846	-36.3818	101.226	79.1969	-24.4267	90.2714	
183	1.525	50.1855	-43.5014	107.967	22.2821	-44.1565	88.9065	4.74312	-50.6577	58.4252	12.8841	-65.0706	31.1316	49.0596	-50.7808	22.8618	38.6814	-82.8746	16.6376	42.3434	-91.8415	50.3978	71.3839	-60.4791	14.418	60.7261	-96.7982	13.9562	62.1115	-97.2182	55.1684	87.1824	-75.9885	13.8039	75.1444	-105.261	22.6729	72.8233	-100.905	56.9917	109.378	-83.0345	26.9967	89.7305	-110.375	32.1365	81.548	-103.35	64.8488	108.212	-37.6396	66.0002	117.373	-35.6172	102.273	76.9945	-26.0164	89.7412	
184	1.53333	46.6194	-42.3679	107.776	23.124	-43.4523	88.346	6.46848	-51.9418	57.4418	18.8289	-66.1602	35.549	44.3146	-53.3176	22.0853	39.4902	-86.0941	18.4411	44.6979	-92.1179	52.0597	68.9225	-61.9076	13.3347	62.0913	-95.1178	12.8043	60.5189	-98.4011	56.8023	86.4966	-73.7136	17.3828	73.285	-103.543	21.2089	74.1356	-101.917	57.9536	105.589	-80.8247	28.3873	91.7754	-112.45	32.0483	85.6838	-108.833	63.9082	105.097	-39.0025	68.3567	112.137	-33.9582	100.613	76.5585	-28.2925	91.4166	
185	1.54167	47.9837	-44.039	110.781	18.8013	-43.2957	93.0537	8.93834	-52.9783	60.2956	21.0147	-67.4899	36.2588	44.218	-54.8696	21.4033	38.461	-84.4968	16.7436	44.9387	-89.9752	56.0954	63.5917	-61.4774	12.7562	59.7448	-97.1996	15.6953	59.7197	-99.6881	53.2589	85.1288	-76.4821	15.0921	77.5578	-103.283	18.6037	70.4224	-102.637	56.6359	104.629	-79.2865	28.8631	88.4495	-110.481	32.3013	85.2273	-109.136	62.593	103.493	-38.3466	66.3766	113.825	-35.642	104.61	74.9387	-27.2517	94.0397	
186	1.55	47.2969	-44.1589	112.913	18.203	-42.5767	92.5563	8.8559	-52.249	58.4146	21.575	-66.9501	36.9027	42.5932	-52.9787	24.9114	36.6065	-85.8497	19.4099	42.8045	-90.8088	54.5489	64.0399	-59.6817	15.7951	56.0102	-95.1825	12.3465	57.5802	-100.033	56.4385	86.1574	-75.849	15.2942	76.5214	-103.637	20.0703	70.1034	-103.847	56.3381	106.703	-82.8412	25.7067	86.7637	-108.224	31.7789	80.6069	-108.452	61.9039	102.93	-38.2714	69.5971	113.802	-33.6933	102.664	72.9688	-26.5069	89.3073	
187	1.55833	47.0582	-45.1618	114.013	20.4468	-43.6998	91.8352	5.44094	-53.1213	61.5054	19.8125	-67.7976	36.6534	45.3005	-53.7457	24.9699	35.236	-88.4175	19.694	43.7929	-93.8025	53.5267	64.6492	-61.1415	16.2824	54.356	-98.0929	16.4936	58.5558	-100.312	56.0254	83.4401	-75.533	15.6092	73.3312	-102.706	19.3081	70.6283	-104.007	58.7206	105.408	-84.0696	25.2076	89.0798	-112.704	33.2413	81.7249	-109.8	65.9526	106.115	-37.9378	69.5933	111.297	-33.5719	100.67	72.3187	-28.2183	90.1435	
188	1.56667	47.4609	-46.0247	113.3	16.2664	-43.1405	93.9338	7.75369	-52.4555	57.9353	20.9205	-67.5683	36.001	41.5734	-54.6322	23.2858	37.7931	-87.7671	19.7315	44.1626	-94.257	52.9442	62.5271	-61.9178	13.6617	59.8689	-96.7959	12.6617	59.1456	-100.563	56.4746	82.4118	-74.115	17.2659	75.2306	-104.779	19.4268	72.6391	-105.76	58.2071	102.316	-80.4397	28.1112	85.8209	-110.467	32.2765	79.4831	-108.42	65.7319	105.036	-39.7379	71.6007	109.48	-33.1889	100.281	76.7559	-28.1684	93.5833	
189	1.575	42.1447	-44.3935	110.83	16.8119	-42.5572	89.2339	6.35435	-52.777	53.8614	24.8323	-67.8758	35.5506	42.0354	-53.9248	26.0822	34.9491	-88.1021	19.7061	39.793	-94.4251	52.4882	62.6259	-61.7123	13.926	53.9583	-99.3858	15.8655	56.4435	-103.256	54.2776	81.6165	-76.6383	15.5968	71.881	-104.514	21.2769	73.6656	-105.963	57.2588	106.171	-81.0807	29.2358	84.731	-109.356	33.3959	81.0497	-108.169	62.6617	105.275	-38.691	70.2284	108.817	-33.7078	103.136	71.3467	-28.694	92.9149	
190	1.58333	43.4625	-45.9049	113.879	17.3996	-43.2609	88.6951	7.03804	-53.3911	56.4428	26.507	-68.1208	33.6459	39.9992	-55.1457	24.0693	35.1652	-87.5603	18.6657	41.2873	-94.7496	54.5279	64.0182	-61.0124	16.9404	57.3959	-100.185	16.7048	59.3679	-101.479	57.4349	81.0405	-77.7458	16.4329	72.5241	-104.902	21.6452	71.8324	-104.033	61.074	101.752	-79.0634	30.5084	85.599	-110.025	32.4257	81.9852	-108.915	63.6157	104.001	-40.5449	68.1049	108.648	-34.8848	105.611	69.3177	-28.3053	92.9602	
191	1.59167	43.1812	-46.6067	108.221	18.7691	-46.1354	91.7685	6.54409	-54.5764	52.5466	21.8397	-69.1122	33.583	43.2347	-58.6821	21.7994	36.9132	-88.2094	18.3095	39.3848	-96.9998	51.7818	63.5467	-65.8993	13.4441	57.6046	-99.6005	15.3256	57.144	-102.234	56.8045	84.3371	-75.2823	18.0936	71.7787	-105.13	22.0315	69.0714	-103.725	58.92	104.01	-82.5865	27.6366	88.2205	-113.225	33.6414	79.788	-106.182	65.9247	100.186	-37.8435	69.8193	106.075	-35.7918	104.483	71.9346	-30.8935	89.2382	
192	1.6	41.6051	-47.1298	109.849	14.0451	-47.2015	89.3382	9.83578	-55.8901	53.9484	22.4573	-70.0587	33.0812	39.1525	-56.3753	24.3859	38.9028	-86.453	17.0192	40.9409	-95.6111	55.2297	63.5134	-64.9473	14.5805	55.1151	-99.8563	17.9075	55.4491	-102.589	57.9398	79.9293	-77.3704	16.4737	74.4559	-106.221	21.3769	67.7398	-102.452	60.4418	98.5872	-81.8159	27.7981	85.668	-112.677	34.1191	83.2736	-110.351	65.5796	100.653	-40.4189	70.2595	104.751	-35.7539	101.507	70.1414	-29.5256	95.1398	
193	1.60833	43.908	-50.3774	113.017	15.9901	-49.2046	86.401	6.38822	-58.585	57.8548	22.2447	-70.6695	31.59	40.772	-54.0858	27.0838	35.7095	-86.05	17.6055	37.7609	-94.7218	54.942	60.1996	-64.2809	16.0317	53.8698	-96.8391	15.5734	54.9954	-102.367	55.7054	83.1388	-73.2918	19.6685	70.0344	-104.582	23.4811	68.3148	-102.743	61.3221	104.596	-81.7178	29.744	86.3092	-113.281	35.5221	83.8515	-107.727	67.9599	102.759	-38.9275	67.5482	110.188	-35.9662	105.131	70.9519	-30.2711	96.2833	
194	1.61667	40.8524	-49.9381	113.172	14.7579	-50.6909	88.6133	5.97377	-58.5542	54.6478	20.5076	-71.034	33.2106	41.9771	-56.491	24.1079	35.4711	-87.4857	19.6542	42.4126	-95.1675	53.2925	61.9388	-64.2759	14.7311	57.1355	-99.216	17.545	56.8311	-102.271	57.5741	81.4147	-74.9676	19.1744	73.453	-104.626	22.6247	71.3137	-105.459	58.8723	97.7383	-81.4952	27.8331	88.2303	-110.955	33.5311	79.6392	-106.092	64.1216	99.4935	-40.0833	68.8562	107.944	-34.9517	104.084	69.0469	-29.1872	93.9687	
195	1.625	42.3607	-50.4559	109.794	17.4735	-52.5982	87.061	6.8783	-61.1126	57.4801	20.9039	-71.7533	34.2763	39.7144	-57.1026	24.8138	33.2535	-87.9487	20.6475	36.8633	-92.8483	58.2826	57.735	-62.7748	16.2658	53.3598	-98.6153	18.673	59.192	-102.294	56.9645	81.7401	-76.5435	18.6914	72.6138	-104.397	22.559	69.3642	-103.698	60.2744	99.1123	-82.162	27.3089	87.7784	-111.692	34.9399	77.9455	-103.137	68.1277	96.8669	-39.9102	72.8536	106.918	-37.0806	104.193	70.2505	-31.1627	95.397	
196	1.63333	41.4521	-51.8004	111.266	16.9237	-53.9854	87.3634	5.57139	-62.3964	57.8623	11.9447	-72.501	31.2511	37.5121	-57.3459	23.989	33.3746	-88.0781	21.9919	37.2938	-93.5443	57.9301	58.7307	-65.0673	15.7084	53.8341	-100.252	19.4529	56.7219	-99.2462	61.5845	78.2259	-75.0535	19.0482	72.3639	-106.856	24.2911	70.5592	-104.309	61.1447	96.6175	-81.3083	29.7264	83.8511	-112.672	39.2926	80.9557	-108.22	69.1478	101.679	-39.0663	68.483	108.586	-38.35	106.661	70.5246	-31.7878	93.8771	
197	1.64167	41.661	-51.9453	112.197	14.4323	-53.7088	86.6254	0.683254	-61.0128	57.0145	5.29024	-73.3219	34.8837	38.8355	-56.7078	26.1333	34.4527	-90.1608	23.699	41.3867	-93.9639	55.8483	58.5911	-61.599	18.7146	52.1091	-97.7249	17.0658	56.9825	-98.5405	61.8287	77.1111	-75.7396	19.9512	71.2485	-107.663	26.6587	66.2706	-103.869	60.4749	101.58	-83.2062	29.7491	82.6012	-112.67	39.6062	78.7159	-103.387	67.8847	99.2565	-41.5151	68.8176	105.061	-38.2112	107.791	67.7376	-29.1271	94.3534	
198	1.65	42.4485	-51.4746	110.606	17.0931	-55.2775	91.8824	-1.27201	-60.9716	60.0584	-4.80335	-71.0558	31.858	37.7709	-54.3291	26.7544	35.3859	-89.5232	22.2937	37.3686	-93.3387	59.5602	62.8452	-64.9151	16.4684	49.6983	-99.6296	19.9873	53.7869	-100.464	60.5815	80.3757	-76.901	20.2665	68.7593	-108.04	26.7951	65.1915	-103.399	59.2787	98.8147	-84.6791	28.4964	82.9659	-113.714	40.2756	79.283	-106.351	68.6876	100.101	-41.7541	70.8192	104.534	-36.2525	102.257	71.5096	-31.1636	94.0684	
199	1.65833	41.3476	-51.0759	106.366	13.002	-54.6681	86.8903	-1.69884	-61.4139	57.9952	-8.37539	-71.2313	36.0165	40.3816	-59.0207	23.5221	31.2579	-88.2568	20.3197	38.8887	-95.2618	54.9217	60.9204	-65.8781	15.2896	51.0492	-99.0705	18.1939	56.9281	-99.6385	61.0658	80.1421	-78.1294	19.4513	66.7354	-106.918	26.2977	68.3678	-102.285	63.1074	100.763	-84.512	29.8346	81.6447	-114.235	39.9737	78.0656	-104.382	69.444	101.678	-42.0231	66.7489	106.339	-37.9597	104.705	66.9901	-28.6608	93.819	
200	1.66667	41.3691	-51.9785	108.727	15.7248	-56.8737	91.805	-4.13453	-61.8486	59.9603	-13.9097	-70.565	38.7137	38.2695	-56.3485	25.1301	33.546	-89.7075	20.8495	38.6638	-94.6886	55.0635	61.8431	-67.6151	15.351	54.1268	-100.918	18.6624	57.2402	-101.305	60.3782	80.7898	-79.4712	18.4175	70.7869	-109.06	27.9014	70.7455	-101.575	64.9648	101.494	-85.9625	28.6281	80.7027	-113.284	40.18	78.5982	-104.773	70.9028	97.4921	-39.6941	68.7755	109.258	-38.5536	105.685	70.1533	-30.1005	91.9451	
201	1.675	40.1394	-50.8193	111.731	13.5759	-55.0365	88.9003	-4.24014	-60.9821	64.3371	-14.4806	-69.9069	39.6978	38.603	-55.6043	25.4211	34.8337	-89.7425	19.8681	37.8275	-95.0853	54.3056	63.3563	-67.2476	16.2035	49.8275	-100.796	18.9411	54.9047	-99.9731	62.4186	82.7684	-78.8275	19.9448	72.7302	-109.408	25.1796	66.5257	-102.516	62.6448	100.599	-85.4522	30.0702	83.7023	-114.771	36.8903	79.5547	-105.263	69.8374	102.814	-43.1484	67.7836	106.18	-37.5367	102.87	67.8786	-31.9439	94.888	
202	1.68333	41.1088	-50.8578	107.648	15.8758	-55.7086	90.0749	-4.82762	-60.2936	60.7804	-9.46508	-69.5321	37.0952	37.6424	-57.5179	21.9316	34.7198	-89.6558	19.9005	40.0135	-95.484	54.8444	61.034	-65.0304	17.9316	53.3054	-102.535	19.1567	52.6619	-102.164	57.8943	78.918	-79.7234	18.5201	70.2191	-110.262	27.333	68.105	-104.619	61.2881	101.319	-87.9234	28.4953	81.4034	-113.84	36.7191	79.4832	-108.729	69.9594	103.29	-41.6791	70.2831	109.791	-40.9303	101.66	70.7978	-31.8521	92.5131	
203	1.69167	38.8341	-47.9292	106.248	14.2738	-52.6359	89.6118	-2.14622	-59.6695	59.3488	-9.40285	-68.9451	34.7549	39.8504	-59.1787	20.8695	32.7719	-89.7551	18.2922	36.7136	-94.9243	56.7662	62.8145	-69.4622	13.2872	53.1761	-102.394	18.2858	56.377	-102.315	59.2854	82.986	-82.623	18.1451	68.8649	-111.777	27.9465	69.96	-103.821	63.4483	98.4934	-90.3742	26.6366	80.3898	-114.842	38.355	77.7767	-109.975	67.6274	103.373	-43.5027	68.0777	113.251	-41.0412	104.326	71.6598	-29.6876	89.2205	
